inDegrees=yes
name=ik_S54_A08_T02
DataType=double
version=3
OpenSimVersion=4.3-2021-08-27-4bc7ad9
endheader
time	pelvis_tilt	pelvis_list	pelvis_rotation	pelvis_tx	pelvis_ty	pelvis_tz	hip_flexion_r	hip_adduction_r	hip_rotation_r	knee_angle_r	knee_angle_r_beta	ankle_angle_r	subtalar_angle_r	mtp_angle_r	hip_flexion_l	hip_adduction_l	hip_rotation_l	knee_angle_l	knee_angle_l_beta	ankle_angle_l	subtalar_angle_l	mtp_angle_l	lumbar_extension	lumbar_bending	lumbar_rotation	arm_flex_r	arm_add_r	arm_rot_r	elbow_flex_r	pro_sup_r	wrist_flex_r	wrist_dev_r	arm_flex_l	arm_add_l	arm_rot_l	elbow_flex_l	pro_sup_l	wrist_flex_l	wrist_dev_l
0	0	0	0	0	0.9399999999999999	0	0	0	0	0	0	0	0	0	0	0	0	0	0	0	0	0	0	0	0	0	0	0	0	89.99999999963507	0	0	0	0	0	0	89.99999999869995	0	0
0.02	-5.783679764549543	-0.2304652135945492	19.94460401805517	0	0.9399999999999999	0	3.931247222574346	-1.822806256903966	-1.321114106714159	6.038387622433652	0.1053897455231394	0	0	0	3.931247222574346	-1.822806256903966	-1.321114106714159	6.038387622433652	0.1053897455231394	0	0	0	-3.438352356087099	-2.310429525226116	0.3977865434941466	29.76418157280629	-1.378058192117186	0.7920901837007968	44.97881337766118	137.0388842567872	0	0	21.74621184809404	-12.61992055512942	-2.934261244650721	52.41266098358846	135.9720431113181	0	0
0.04	-5.073046600609138	-0.3139496100685956	18.96620747345741	0	0.9399999999999999	0	43.48458512388359	-10.20501091774165	-10.30836463941429	55.63525184257285	0.9710183248291381	0	0	0	43.48458512388359	-10.20501091774165	-10.30836463941429	55.63525184257285	0.9710183248291381	0	0	0	-4.042661045057499	-2.058627244764588	1.405541814869163	29.7580634997448	-1.365633019690882	0.769085572334423	44.95780818477655	137.0757311923596	0	0	21.76402143884773	-12.62168495585058	-2.93607228883331	52.38999664235658	135.9903952267158	0	0
0.06	-5.071313851769998	-0.3104393162567831	18.97002245407096	0	0.9399999999999999	0	43.48526426845688	-10.20488130169975	-10.30816133142559	55.63503904786201	0.9710146108608031	0	0	0	43.48526426845688	-10.20488130169975	-10.30816133142559	55.63503904786201	0.9710146108608031	0	0	0	-4.040200840235866	-2.054748068530504	1.405891601433648	29.76580124638105	-1.357348128818549	0.7598741099511229	44.9445053457968	137.0949184670941	0	0	21.75641997613232	-12.61028688094838	-2.932401649280715	52.37576797724827	136.0002752535288	0	0
0.08	-5.067008357593481	-0.3103043805725021	18.97417612813382	0	0.9399999999999999	0	43.48625331152829	-10.20424787061532	-10.30762187743597	55.63477909006236	0.971010073741283	0	0	0	43.48625331152829	-10.20424787061532	-10.30762187743597	55.63477909006236	0.971010073741283	0	0	0	-4.036441191863815	-2.054697382967371	1.407007251944692	29.78159983094794	-1.359398287268305	0.7472063533420674	44.95184985162398	137.0709426647412	0	0	21.74734053666668	-12.6127591217306	-2.941288220695324	52.38063968977691	135.9797599079419	0	0
0.1	-5.058049688770981	-0.3066951553996063	18.97782929832738	0	0.9399999999999999	0	43.48456139912517	-10.20511079691008	-10.30843086106341	55.63524193792178	0.9710181519603658	0	0	0	43.48456139912517	-10.20511079691008	-10.30843086106341	55.63524193792178	0.9710181519603658	0	0	0	-4.026129188250207	-2.056248235717185	1.400047525573468	29.78419511206476	-1.356569144407954	0.7494381512246145	44.8468253185041	137.232816279357	0	0	21.73593261186457	-12.59910831965402	-2.94839394458874	52.33226700540008	136.06387825318	0	0
0.12	-5.05825517397656	-0.3089924859659223	18.9696971340944	0	0.9399999999999999	0	43.48553431799473	-10.20474535582621	-10.30804737133504	55.6349548494609	0.9710131413214789	0	0	0	43.48553431799473	-10.20474535582621	-10.30804737133504	55.6349548494609	0.9710131413214789	0	0	0	-4.027413393124871	-2.057590670149219	1.410640293494003	29.78669602371111	-1.348914501711627	0.7493652668064422	44.81768201684025	137.2845116182908	0	0	21.76297320068798	-12.61391246207915	-2.887931790919081	52.32094565048545	136.025467772359	0	0
0.14	-5.05535212598578	-0.3116079326514086	18.97655002256187	0	0.9399999999999999	0	43.48748120449004	-10.20376390296455	-10.30712903882039	55.63441407893623	0.9710037030953257	0	0	0	43.48748120449004	-10.20376390296455	-10.30712903882039	55.63441407893623	0.9710037030953257	0	0	0	-4.026288534627986	-2.057779554918984	1.406715672742375	29.79413154631871	-1.371378097267855	0.7893012419377543	44.84606174856522	137.2449217576788	0	0	21.80667672204958	-12.65268800671448	-2.857232208404452	52.33535097660486	135.9665981376935	0	0
